<svg xmlns="http://www.w3.org/2000/svg" height="40" viewBox="0 -960 960 960" width="40"><path fill="#e7e7e7" d="M113.333-120q-14.166 0-23.75-9.583Q80-139.167 80-153.333v-413.334q0-14.166 9.583-23.75Q99.167-600 113.333-600h140q14.167 0 23.75 9.583 9.583 9.584 9.583 23.75v413.334q0 14.166-9.583 23.75Q267.5-120 253.333-120h-140ZM410-120q-14.167 0-23.75-9.583-9.583-9.584-9.583-23.75v-653.334q0-14.166 9.583-23.75Q395.833-840 410-840h140q14.167 0 23.75 9.583 9.583 9.584 9.583 23.75v653.334q0 14.166-9.583 23.75Q564.167-120 550-120H410Zm296.667 0q-14.167 0-23.75-9.583-9.583-9.584-9.583-23.75v-333.334q0-14.166 9.583-23.75Q692.5-520 706.667-520h140q14.166 0 23.75 9.583 9.583 9.584 9.583 23.75v333.334q0 14.166-9.583 23.75-9.584 9.583-23.75 9.583h-140Z"/></svg>